<svg xmlns="http://www.w3.org/2000/svg" viewBox="0 0 480 320"><rect width="480" height="320" fill="#C2C8DA"/><circle cx="240.0" cy="144.0" r="115.19999999999999" fill="#fff" opacity=".25"/><ellipse cx="240.0" cy="250.03199999999998" rx="177.84" ry="8.424000000000001" fill="#000" opacity=".22"/><g transform="translate(52.79999999999998,117.11999999999999) scale(0.936)"><path d="M20,114 L20,88 Q22,78 44,74 L82,68 L110,36 L300,36 Q330,38 345,68 L372,76 Q385,82 385,98 L385,114 Z" fill="#ffffff"/><path d="M100,70 L118,44 L295,44 Q318,48 330,70 Z" fill="#dce7f2"/><path d="M190,44 V76 M20,100 H382" stroke="#000" stroke-opacity=".25" stroke-width="3" fill="none"/><rect x="368" y="90" width="14" height="7" rx="3" fill="#ffe27a"/><rect x="20" y="90" width="10" height="7" rx="3" fill="#e5484d"/><circle cx="95" cy="114" r="28" fill="#111"/><circle cx="95" cy="114" r="14" fill="#b9bfca"/><circle cx="95" cy="114" r="4" fill="#111"/><circle cx="305" cy="114" r="28" fill="#111"/><circle cx="305" cy="114" r="14" fill="#b9bfca"/><circle cx="305" cy="114" r="4" fill="#111"/></g></svg>