<svg xmlns="http://www.w3.org/2000/svg" viewBox="0 0 640 440"><rect width="640" height="440" fill="#E8A0A4"/><circle cx="320.0" cy="198.0" r="158.4" fill="#fff" opacity=".25"/><ellipse cx="320.0" cy="343.36" rx="243.20000000000002" ry="11.52" fill="#000" opacity=".22"/><g transform="translate(64.0,161.6) scale(1.28)"><path d="M20,112 L20,98 Q24,90 50,86 L140,68 Q170,48 215,48 Q262,50 290,74 L360,86 Q384,92 384,102 L384,112 Z" fill="#ffffff"/><path d="M150,70 L172,54 Q190,52 212,52 Q250,54 275,72 Z" fill="#dce7f2"/><path d="M190,44 V76 M20,100 H382" stroke="#000" stroke-opacity=".25" stroke-width="3" fill="none"/><rect x="368" y="90" width="14" height="7" rx="3" fill="#ffe27a"/><rect x="20" y="90" width="10" height="7" rx="3" fill="#e5484d"/><circle cx="95" cy="114" r="28" fill="#111"/><circle cx="95" cy="114" r="14" fill="#b9bfca"/><circle cx="95" cy="114" r="4" fill="#111"/><circle cx="305" cy="114" r="28" fill="#111"/><circle cx="305" cy="114" r="14" fill="#b9bfca"/><circle cx="305" cy="114" r="4" fill="#111"/></g></svg>